<?xml version="1.0" standalone="no"?>
<!DOCTYPE svg PUBLIC "-//W3C//DTD SVG 20010904//EN"
 "http://www.w3.org/TR/2001/REC-SVG-20010904/DTD/svg10.dtd">
<svg version="1.0" xmlns="http://www.w3.org/2000/svg"
 width="1280.000000pt" height="698.000000pt" viewBox="0 0 1280.000000 698.000000"
 preserveAspectRatio="xMidYMid meet">

<g transform="translate(0.000000,698.000000) scale(0.100000,-0.100000)"
fill="#000000" stroke="none">
<path d="M8722 4488 c-28 -28 -3 -72 39 -66 30 4 47 33 33 56 -14 21 -55 27
-72 10z"/>
<path d="M8740 4315 c0 -16 6 -25 15 -25 9 0 15 9 15 25 0 16 -6 25 -15 25 -9
0 -15 -9 -15 -25z"/>
<path d="M8740 4210 c0 -20 5 -30 15 -30 10 0 15 10 15 30 0 20 -5 30 -15 30
-10 0 -15 -10 -15 -30z"/>
<path d="M9125 4230 c-3 -6 1 -7 9 -4 18 7 21 14 7 14 -6 0 -13 -4 -16 -10z"/>
<path d="M8390 4223 c-56 -21 -68 -87 -24 -122 15 -12 34 -21 44 -21 34 0 70
39 70 75 0 49 -46 84 -90 68z"/>
<path d="M8746 4133 c-12 -13 -6 -53 9 -53 9 0 15 9 15 24 0 26 -12 40 -24 29z"/>
<path d="M8991 4020 c-19 -11 -9 -45 14 -45 13 0 21 8 23 21 3 23 -17 37 -37
24z"/>
<path d="M8715 3991 c-72 -18 -132 -68 -159 -133 -11 -24 -16 -69 -16 -128 l0
-90 43 0 c298 -2 298 -2 285 -19 -11 -14 -11 -14 3 -4 9 7 20 9 24 5 5 -4 5
-2 1 5 -4 8 7 13 36 15 l43 3 3 80 c3 89 -13 145 -55 196 -47 55 -141 87 -208
70z m-55 -256 c17 -20 5 -45 -20 -45 -11 0 -23 7 -26 15 -6 15 11 45 26 45 4
0 13 -7 20 -15z m240 -20 c0 -27 -17 -36 -42 -23 -22 11 -23 22 -3 42 21 20
45 10 45 -19z"/>
<path d="M3512 3970 c-98 -26 -165 -64 -232 -130 -104 -104 -153 -234 -153
-405 -1 -169 40 -278 144 -389 84 -90 227 -156 336 -156 l33 0 0 -145 0 -145
-95 0 c-78 0 -95 -3 -95 -15 0 -13 30 -15 206 -15 160 0 205 3 202 13 -3 8
-35 13 -102 15 l-97 3 2 140 c1 92 6 142 13 144 6 1 47 9 92 18 112 21 187 59
260 132 106 105 154 230 154 405 0 168 -49 297 -151 399 -129 130 -329 180
-517 131z m240 -186 c67 -22 122 -75 160 -152 32 -65 33 -70 33 -192 0 -117
-2 -129 -29 -187 -34 -74 -93 -133 -158 -158 -60 -22 -176 -18 -232 10 -124
60 -194 229 -167 403 27 181 136 289 292 291 30 1 76 -6 101 -15z"/>
<path d="M3575 3581 c-6 -5 -26 -11 -45 -13 -35 -3 -35 -3 -38 -57 -3 -43 -7
-54 -23 -58 -26 -7 -25 -49 1 -63 16 -9 20 -21 20 -65 l0 -55 39 0 c22 0 43
-4 46 -10 10 -17 25 -11 25 9 0 17 -8 20 -47 23 l-48 3 -3 49 c-2 35 -9 54
-25 66 l-21 17 22 12 c18 10 22 21 22 61 l0 50 50 0 c43 0 50 3 50 20 0 21
-10 26 -25 11z"/>
<path d="M3645 3580 c-7 -12 2 -30 16 -30 5 0 9 9 9 20 0 21 -15 27 -25 10z"/>
<path d="M3720 3570 c0 -17 7 -20 45 -20 l45 0 0 -45 c0 -34 5 -48 20 -57 11
-7 20 -18 20 -25 0 -7 -9 -17 -20 -23 -16 -8 -20 -21 -20 -60 l0 -50 -44 0
c-48 0 -60 -8 -45 -30 7 -11 11 -12 17 -3 4 6 25 13 47 15 l40 3 3 56 c2 47 6
58 22 62 26 7 26 43 1 57 -15 8 -21 23 -23 63 l-3 52 -39 1 c-22 0 -42 6 -44
12 -6 19 -22 14 -22 -8z"/>
<path d="M3556 3498 c-9 -37 -7 -138 4 -159 9 -16 22 -19 93 -19 45 0 88 4 96
9 15 10 21 157 7 179 -5 8 -39 12 -100 12 -89 0 -94 -1 -100 -22z m64 -2 c0
-7 -7 -19 -15 -26 -8 -7 -15 -23 -15 -36 0 -13 -4 -24 -10 -24 -11 0 -14 83
-3 93 12 12 43 7 43 -7z m60 -6 c0 -24 -26 -38 -42 -22 -16 16 -2 42 22 42 13
0 20 -7 20 -20z m65 -26 c3 -25 4 -48 1 -51 -10 -10 -27 9 -22 24 4 9 -1 21
-10 28 -20 14 -13 45 10 45 9 0 16 -16 21 -46z m-98 -48 c-10 -25 -37 -19 -37
7 0 13 3 27 7 31 11 11 36 -21 30 -38z m58 13 c0 -15 -7 -25 -18 -27 -22 -4
-33 24 -17 43 18 21 35 13 35 -16z m-95 -49 c13 -25 5 -40 -21 -40 -14 0 -19
7 -19 30 0 35 23 41 40 10z m138 -16 c-5 -27 -48 -32 -48 -5 0 22 30 44 43 31
5 -4 7 -16 5 -26z m-68 1 c0 -20 -5 -25 -25 -25 -18 0 -25 5 -25 18 0 10 3 22
7 25 3 4 15 7 25 7 13 0 18 -7 18 -25z"/>
<path d="M3647 3284 c-8 -8 3 -34 14 -34 5 0 9 9 9 20 0 19 -11 26 -23 14z"/>
<path d="M4813 3976 c-193 -44 -343 -196 -389 -393 -21 -90 -14 -265 14 -343
44 -126 116 -218 214 -277 189 -114 492 -88 631 55 l36 37 -65 67 -66 68 -41
-35 c-130 -111 -331 -97 -430 31 -84 109 -102 299 -42 432 82 182 301 238 458
118 l45 -34 34 36 c18 21 46 52 62 69 l30 33 -25 26 c-89 95 -306 146 -466
110z"/>
<path d="M1690 3440 l0 -530 106 0 106 0 -4 373 c-3 204 -8 380 -12 390 -5 9
-4 17 2 17 5 0 30 -53 55 -117 25 -65 88 -221 141 -348 l95 -230 89 -3 89 -3
131 324 c73 177 132 327 132 333 0 6 6 18 13 27 10 14 11 -57 8 -373 l-3 -390
106 0 106 0 0 530 0 531 -147 -3 -146 -3 -141 -362 c-77 -200 -143 -360 -146
-355 -4 4 -41 95 -83 202 -42 107 -105 267 -140 355 l-63 160 -147 3 -147 3 0
-531z"/>
<path d="M5550 3438 l0 -533 105 3 105 3 0 150 0 150 62 72 c34 40 64 73 67
74 3 2 73 -98 154 -222 l148 -225 130 0 c101 0 129 3 123 13 -4 6 -44 66 -89
132 -325 478 -317 466 -303 483 8 9 43 51 79 92 36 41 116 135 178 208 l112
132 -130 0 -130 0 -58 -71 c-32 -39 -96 -117 -142 -173 -46 -55 -106 -129
-135 -163 -28 -35 -54 -63 -58 -63 -5 0 -8 106 -8 235 l0 235 -105 0 -105 0 0
-532z"/>
<path d="M6657 3964 c-7 -8 -10 -1048 -3 -1055 2 -2 50 -3 106 -1 l102 3 -4
389 c-2 214 -2 387 0 385 2 -2 41 -95 86 -207 45 -111 108 -267 141 -346 l58
-143 89 3 89 3 35 85 c19 47 83 202 140 345 108 267 133 316 118 235 -7 -39
-15 -737 -8 -750 1 -3 47 -4 103 -2 l101 3 0 530 0 529 -144 0 -145 0 -31 -82
c-18 -46 -74 -191 -125 -323 -51 -132 -99 -259 -106 -282 -7 -24 -15 -43 -19
-43 -3 0 -71 163 -151 363 l-144 362 -141 3 c-77 1 -143 -1 -147 -4z"/>
<path d="M9410 3880 l0 -90 155 0 155 0 0 -440 0 -440 110 0 110 0 0 440 0
440 160 0 160 0 0 90 0 90 -425 0 -425 0 0 -90z"/>
<path d="M10485 3848 c-3 -68 -5 -307 -3 -531 l3 -408 355 0 355 1 3 85 3 85
-245 0 -245 0 -3 123 c-2 67 -1 128 1 135 2 9 52 12 207 12 l204 0 0 90 0 90
-204 0 -203 0 -6 122 c-3 68 -3 126 -1 130 3 5 111 8 240 8 l234 0 0 90 0 90
-344 0 -344 0 -7 -122z"/>
<path d="M8294 3845 c-4 -9 -2 -21 4 -27 16 -16 47 -5 47 17 0 26 -42 34 -51
10z"/>
<path d="M8546 3598 c-14 -70 2 -104 34 -70 13 14 12 15 -3 9 -9 -3 -17 -2
-17 3 0 6 3 10 8 10 4 0 8 11 8 25 1 16 -2 23 -10 18 -6 -3 -7 -2 -3 3 5 5 13
10 18 10 5 1 14 2 20 3 20 2 -1 19 -25 19 -19 0 -25 -7 -30 -30z"/>
<path d="M8423 3594 c-3 -9 -3 -59 0 -111 12 -183 105 -303 261 -338 l51 -12
0 -171 0 -172 -108 0 c-124 0 -147 -8 -147 -50 l0 -30 281 0 282 0 -7 32 c-7
34 -21 49 -46 47 -8 -1 -59 -1 -112 0 l-98 1 0 175 0 175 24 0 c83 0 197 79
246 171 33 61 35 70 38 182 4 98 2 117 -11 117 -11 0 -15 -22 -19 -107 -6
-118 -17 -153 -71 -223 -39 -51 -100 -85 -180 -102 -108 -23 -230 29 -294 125
-43 64 -53 104 -53 215 0 76 -3 92 -15 92 -9 0 -18 -7 -22 -16z"/>
<path d="M8692 3575 c0 -16 2 -22 5 -12 2 9 2 23 0 30 -3 6 -5 -1 -5 -18z"/>
<path d="M8604 3579 c-10 -17 13 -36 27 -22 12 12 4 33 -11 33 -5 0 -12 -5
-16 -11z"/>
<path d="M8882 3576 c1 -10 8 -17 13 -17 15 1 12 24 -3 29 -9 3 -13 -2 -10
-12z"/>
<path d="M8830 3570 c0 -5 5 -10 11 -10 5 0 7 5 4 10 -3 6 -8 10 -11 10 -2 0
-4 -4 -4 -10z"/>
<path d="M8670 3551 c0 -6 4 -13 10 -16 6 -3 7 1 4 9 -7 18 -14 21 -14 7z"/>
<path d="M8910 3520 c-9 -6 -10 -10 -3 -10 6 0 15 5 18 10 8 12 4 12 -15 0z"/>
<path d="M8702 3511 c4 -13 18 -16 19 -4 0 4 -5 9 -11 12 -7 2 -11 -2 -8 -8z"/>
<path d="M8597 3485 c-8 -20 9 -28 30 -15 15 9 14 10 -7 4 -24 -6 -24 -6 -5
10 17 13 17 15 4 16 -9 0 -19 -7 -22 -15z"/>
<path d="M8550 3470 c0 -5 5 -10 11 -10 5 0 7 5 4 10 -3 6 -8 10 -11 10 -2 0
-4 -4 -4 -10z"/>
<path d="M8573 3375 c0 -8 3 -13 5 -10 9 9 42 -27 35 -38 -3 -6 -1 -7 5 -3 6
4 8 14 5 23 -5 12 -3 14 8 8 12 -8 12 -6 0 9 -8 9 -20 15 -26 12 -7 -2 -17 0
-22 5 -6 6 -10 4 -10 -6z"/>
<path d="M8909 3368 c-5 -9 -5 -48 -1 -43 6 6 11 45 5 45 -2 0 -4 -1 -4 -2z"/>
<path d="M8837 3289 c7 -7 15 -10 18 -7 3 3 -2 9 -12 12 -14 6 -15 5 -6 -5z"/>
</g>
</svg>
